<?xml version="1.0" encoding="UTF-8" standalone="no"?><!-- Generator: Gravit.io --><svg xmlns="http://www.w3.org/2000/svg" xmlns:xlink="http://www.w3.org/1999/xlink" style="isolation:isolate" viewBox="42 304 628 151" width="628pt" height="151pt"><g><path d=" M 384 304 L 442 304 L 442 399 L 453 399 C 460.188 399 465.719 397.281 474 389 L 492 371 C 496.938 366.063 499 361.094 499 349 L 499 304 L 556 304 L 556 367 C 556 380.594 552.01 389.885 544 399 L 569 399 C 575.875 399 580.281 396.719 585 392 L 607 370 C 613 364 613 360.344 613 348 L 613 304 L 670 304 L 670 375 C 670 380.031 667.156 388.844 660 396 L 610 446 C 604.75 451.25 595.281 455 585 455 L 528 455 L 528 414 L 498 444 C 492.063 449.938 485.594 455 475 455 L 384 455 L 384 304 Z " fill="rgb(255,255,255)"/><path d=" M 80 455 L 138 455 L 138 361 L 176 361 L 176 304 L 42 304 L 42 361 L 80 361 L 80 455 Z " fill="rgb(255,255,255)"/><path d=" M 195 304 L 195 454 L 252 454 L 252 361 L 264 361 C 271.438 361 276.781 363.781 282 369 L 302 389 C 308.094 395.094 309 401.656 309 411 L 309 454 L 367 454 L 367 393 C 367 382.406 366.5 375.5 360 369 L 304 313 C 296.453 305.453 288.688 304 286 304 L 195 304 Z " fill="rgb(255,255,255)"/></g></svg>