<?xml version="1.0" encoding="UTF-8" standalone="no"?><!-- Generator: Gravit.io --><svg xmlns="http://www.w3.org/2000/svg" xmlns:xlink="http://www.w3.org/1999/xlink" style="isolation:isolate" viewBox="92 340 50 41.141" width="50pt" height="41.141pt"><path d=" M 118.369 346.337 L 133.837 340 C 148.567 358.278 143.113 373.421 119.487 381.141 C 123.374 370.964 123.065 364.402 119.487 363.762 C 114.434 362.973 113.852 366.997 118.648 376.109 C 102.204 376.109 93.519 370.575 92.044 359.01 C 91.702 352.461 93.349 346.886 96.983 342.283 L 111.939 345.871 C 108.586 349.512 109.022 352.697 113.244 355.422 C 114.235 353.178 113.927 352.031 112.312 351.974 L 112.172 351.462 L 117.763 349.086 C 120.095 350.367 120.702 352.169 119.58 354.49 C 123.224 352.278 123.171 349.101 118.369 346.337 Z " fill="rgb(28,94,209)"/></svg>